<svg width="64" height="64" viewBox="0 0 64 64" fill="none" xmlns="http://www.w3.org/2000/svg">
<rect width="64" height="64" rx="10" fill="white"/>
<path d="M39.4237 10.9436L51.5684 23.3362C52.048 23.8256 52.0441 24.6099 51.5596 25.0945L44.6014 32.0526L38.7064 37.9476C38.2214 38.4326 37.4362 38.4361 36.947 37.9554L30.2632 31.3888L24.5544 25.6801C22.4745 23.8214 17.2791 20.9272 13.137 24.2197C15.4824 21.7415 21.4478 15.6168 26.5458 10.9436C31.6439 6.2704 37.2553 8.99643 39.4237 10.9436Z" fill="#B1B1B1"/>
<path d="M14.5973 37.3427C9.92411 32.5633 11.6766 26.589 13.1369 24.1993C17.2791 20.9068 22.4745 23.8011 24.5544 25.6597L30.2631 31.3684L36.947 37.935C37.4362 38.4157 38.2214 38.4122 38.7064 37.9272L44.6013 32.0322L49.0282 36.4591C49.5162 36.9471 49.5162 37.7383 49.0282 38.2263L39.0254 48.2291L33.0093 54.1295C32.5184 54.611 31.7307 54.6054 31.2467 54.117L17.3853 40.1307C18.4031 41.1928 19.2705 42.1221 14.5973 37.3427Z" fill="#505050"/>
</svg>
